# xmcd
#
# Track frame offsets:
#	150
#	2377
#	9637
#	17027
#	59310
#	84424
#	146416
#	190709
#	229144
#
# Disc length: 4103 seconds
#
# Revision: 1
# Processed by: cddbd v1.5.2PL0 Copyright (c) Steve Scherf et al.
# Submitted via: audiograbber 1.83.01
#
DISCID=60100509
DTITLE=Micky and The Hartbeats - 68-10-30 The Matrix, San Francisco CA
DYEAR=1900
DGENRE=
TTITLE0=Tuning
TTITLE1=St Stephen Jam
TTITLE2=Jam
TTITLE3=Turn On Your Lovelight
TTITLE4=Jam
TTITLE5=Jam cont
TTITLE6=The Eleven Jam
TTITLE7=Death Dont Have No Mercy
TTITLE8=Prisoner Blues
EXTD=
EXTT0=
EXTT1=
EXTT2=
EXTT3=
EXTT4=
EXTT5=
EXTT6=
EXTT7=
EXTT8=
PLAYORDER=
